<svg xmlns="http://www.w3.org/2000/svg" width="145" height="160"><path fill="#f57702" d="M68 7h2c.25.66.51 1.33.77 2.01C74.72 19.15 74.72 19.15 77 22h4c.33 1.16.33 1.16 2 7 1.46.17 2.92.33 4.38.5.4.05.4.05 2.46.28C92 30 92 30 94 30v17h1c.17 1.16.17 1.16 1 7 1.75-.12 1.75-.12 4-1 1.35-1.99 2.69-3.99 4-6 2.96-2.22 6.02-2.28 9.64-2.65 3.77-.56 7.38-1.66 11.04-2.73C127 41 127 41 129 41c-.22.78-.43 1.56-.66 2.37-.27 1.01-.55 2.02-.84 3.07-.28 1.01-.56 2.02-.84 3.06C126 52 126 52 126 53l2 1v14h2l1 2h4c.38 2.25.38 2.25 0 5-1.99 1.34-3.99 2.68-6 4a98 98 0 0 0-2 6c-1.94 1.76-3.67 2.84-6 4 .13 1.8.13 1.8 1 4 2.69 1.63 2.69 1.63 6 3.13 5.91 2.68 5.91 2.68 7 4.87 2.06.63 2.06.63 4 1l-1 5c-.68.17-1.35.34-2.05.52-5.15 1.4-8.31 2.43-11.95 6.48-2.75.75-2.75.75-5 1-.16.5-.16.5-1 3h2v2c-5.33.33-10.67.67-16 1l7 1v1h-8c.01.63.02 1.25.04 1.9 0 .82.01 1.63.02 2.48.01.81.03 1.62.04 2.46C103 132 103 132 102 134c-.49-.16-.49-.16-3-1v-2c-.48-.03-.48-.03-2.94-.19-6.2-.91-11.55-3.8-15.31-8.81-.58-.99-1.15-1.98-1.75-3-1.64-1.69-3.31-3.36-5-5-.7 15.01-1.15 29.97-1 45h-5c.07-1.08.14-2.16.22-3.28.84-13.58.89-27.12.78-40.72-1.32 1.6-2.63 3.21-3.94 4.81-.73.9-1.46 1.79-2.21 2.71C61 125 61 125 60 128c-.82.17-.82.17-5 1-.16.5-.16.5-1 3-1.93 1.35-1.93 1.35-4.31 2.63-.78.42-1.56.85-2.37 1.28C45 137 45 137 41 138v-13c-5.98-.93-11.97-1.49-18-2-.1-.62-.21-1.24-.31-1.87C22 119 22 119 19 117l-1.94-.94C15 115 15 115 13.25 113.56 10.04 111.34 6.68 110.29 3 109v-2c.64-.18 1.28-.36 1.93-.55.83-.25 1.66-.5 2.51-.76.82-.25 1.64-.49 2.49-.74.69-.31 1.37-.63 2.07-.95l1-3c.83-.16.83-.16 5-1l1-3c.49-.16.49-.16 3-1h-2l-1.94-2.94C16 90 16 90 13 89c-.68-1.32-1.35-2.66-2-4a75 75 0 0 0-5.75-5.5C4 78 4 78 4 74l8-1c.18-4.07-.15-6.43-2-10l1-3h1c.32-5.99-.32-9.64-3-15 4.05-1.16 6.22-.84 10 1v2c4.61.18 7.8-.13 12-2 3 0 3 0 4.56 1.38.48.53.95 1.07 1.44 1.62 2 2 2 2 5 3l1 2h6c-.14-2.52-.29-5.04-.44-7.56l-.12-2.14c-.27-4.48-.75-8.86-1.44-13.3l3.31.06C54 31 54 31 57 30c.91-2.29 1.46-4.58 2.06-6.97L60 21c1.97-.59 1.97-.59 4-1 2-3 2.49-4.71 3.13-8.19.16-.9.33-1.8.5-2.73zm48 38 4 1Zm-10 1 1 2ZM94 56l1 2 1-2zm32 6v7h1v-7zm-7 29 1 3Zm-95 27 1 3Zm77 3v8h1v-8zm-59 3v8h1v-8z"/><path fill="#f99504" d="M73 20c.47.17.47.17 2.88 1C79 22 79 22 81 22l2 7c1.46.17 2.92.33 4.38.5.81.09 1.62.19 2.46.28C92 30 92 30 94 30v17h1l1 7c1.75-.12 1.75-.12 4-1 1.35-1.99 2.69-3.99 4-6 2.96-2.22 6.02-2.28 9.64-2.65 3.77-.56 7.38-1.66 11.04-2.73C127 41 127 41 129 41c-.22.78-.43 1.56-.66 2.37-.27 1.01-.55 2.02-.84 3.07-.28 1.01-.56 2.02-.84 3.06C126 52 126 52 126 53c.33.17.33.17 2 1v14h2l1 2h4c.38 2.25.38 2.25 0 5-1.99 1.34-3.99 2.68-6 4a98 98 0 0 0-2 6c-1.94 1.76-3.67 2.84-6 4 .13 1.8.13 1.8 1 4 2.69 1.63 2.69 1.63 6 3.13 5.91 2.68 5.91 2.68 7 4.87 2.06.62 2.06.62 4 1l-1 5c-.68.17-1.35.34-2.05.52-5.15 1.4-8.31 2.43-11.95 6.48-2.75.75-2.75.75-5 1-.16.5-.16.5-1 3h2v2c-2.67.17-2.67.17-16 1l7 1v1h-8c.01.63.02 1.25.04 1.9 0 .82.01 1.63.02 2.48.01.81.03 1.62.04 2.46C103 132 103 132 102 134c-.49-.16-.49-.16-3-1v-2c-.48-.03-.48-.03-2.94-.19-6.13-.89-11.5-3.76-15.25-8.68L79 119c-1.57-1.87-3.19-3.68-4.83-5.48C73 112 73 112 73 110l2-2v-2h2l.73-1.73c1.5-2.69 3.29-4.41 5.52-6.52 3.55-3.46 6.61-6.97 9.46-11.02C94 85 94 85 95.46 83.56c1.87-1.89 3.23-3.99 4.73-6.18 3.13-4.13 3.13-4.13 6.04-5.19 2.21-.25 2.21-.25 5.77-.19-.99-.16-.99-.16-6-1 .42-.63.84-1.25 1.28-1.9.55-.82 1.09-1.63 1.66-2.47.27-.41.27-.41 1.65-2.47C112 62 112 62 113 60l-4-1c-.16 1.28-.33 2.56-.5 3.88-1.33 6.17-5.09 10.72-9.5 15.12h-2c-.2-1.42-.38-2.83-.56-4.25-.11-.79-.21-1.58-.32-2.39-.12-2.4.05-4.11.88-6.36 2.06-1.25 2.06-1.25 4-2-3.44.81-3.44.81-7 2l-1 3h-2l-.25 2.38C90 73 90 73 88 74.13c-.66.28-1.32.57-2 .87l-1 3c-3-3.62-3-3.62-3-7-.82.16-.82.16-5 1v-2l-5-1c.01-1.26.02-2.53.04-3.83 0-1.66.01-3.32.02-4.98l.03-2.53c0-.4 0-.4.01-2.43 0-.74.01-1.48.01-2.24C72 51 72 51 71 48c1.62-1.71 3.29-3.37 5-5h2v-2h-5v-3c.45-.43.91-.87 1.38-1.31 2.2-2.29 2.75-4.68 3.62-7.69h-2l1-2 2 1c-2-2-2-2-5-3zm43 25 4 1Zm-10 1 1 2ZM94 56l1 2 1-2zm32 6v7h1v-7zm-7 29 1 3Zm-18 30v8h1v-8z"/><path fill="#f68103" d="M22 69c4.67-.69 8.45-1.08 12.45 1.71 2.02 2.02 3.88 3.97 5.55 6.29v2h2c.94 1.45 1.88 2.89 2.8 4.35 1.97 2.71 4.6 4.58 7.2 6.65 1.67 1.66 3.34 3.33 5 5 1.12 1.03 2.24 2.06 3.37 3.09 1.17 1.09 2.34 2.19 3.51 3.29.6.53 1.21 1.07 1.83 1.63 3.12 2.97 4.26 4.12 4.42 8.58-1.21 3.66-2.59 5.77-5.13 8.66-3.92 4.51-3.92 4.51-5 7.75-.82.17-.82.17-5 1l-1 3c-1.93 1.35-1.93 1.35-4.31 2.63-.78.42-1.56.85-2.37 1.28C45 137 45 137 41 138v-13c-5.98-.93-11.97-1.49-18-2-.1-.62-.21-1.24-.31-1.87C22 119 22 119 19 117l-1.94-.94C15 115 15 115 13.25 113.56 10.04 111.34 6.68 110.29 3 109v-2c.64-.18 1.28-.36 1.93-.55.83-.25 1.66-.5 2.51-.76.82-.25 1.64-.49 2.49-.74.69-.31 1.37-.63 2.07-.95l1-3 5-1 1-3 3-1h-2c-2.37-2.99-3.92-5.03-4.25-8.87.08-.71.17-1.41.25-2.13l2-1 1-3h2c-.21-1.09-.41-2.19-.62-3.31C20 74 20 74 22 71zm2 49 1 3Zm18 6v8h1v-8z"/><path fill="#e85702" d="M19 46v2c4.61.18 7.8-.13 12-2 3 0 3 0 4.56 1.38.48.53.95 1.07 1.44 1.62 2 2 2 2 5 3 .17.33.17.33 1 2h7v2h2l2-2 2 2-1 3 3 1-5 1v4l2 2c-4 0-4 0-7-1-2.12.31-2.12.31-4 1l-1 2h2c0 2 0 2-1.5 3.63-.49.45-.99.9-1.5 1.37l4 2-.12 2.75c.12 3.13.51 4.64 2.12 7.25-3.41-1.14-4.12-2.04-6-5v-2h-2c-1.69-1.71-1.69-1.71-3.56-3.94-.62-.73-1.24-1.46-1.88-2.21-.52-.61-1.03-1.22-1.56-1.85-1.66-1.66-3.78-1.36-6.06-1.56-.92-.09-1.84-.17-2.79-.26L22 69l1 3-2 3c.44 2.06.44 2.06 1 4l-1 2h-2l-1 4h-2l1 4h-4c-.25-.58-.49-1.15-.75-1.75-1.77-3.19-4.25-5.39-7-7.75C4 78 4 78 4 74c1.32-.16 1.32-.16 8-1 .18-4.07-.15-6.43-2-10l1-3h1c.32-5.99-.32-9.64-3-15 3.94-1.31 6.12-.24 10 1"/><path fill="#fa9302" d="M73 20c.47.17.47.17 2.88 1C79 22 79 22 81 22l2 7c1.46.17 2.92.33 4.38.5.81.09 1.62.19 2.46.28C92 30 92 30 94 30c.13 10.72-.2 21.31-1 32 .5.17.5.17 3 1-1.37 2.5-1.37 2.5-3 5h-2l-.25 2.38C90 73 90 73 88 74.13c-.66.28-1.32.57-2 .87l-1 3c-3-3.62-3-3.62-3-7-.82.16-.82.16-5 1v-2l-5-1c.01-1.26.02-2.53.04-3.83 0-1.66.01-3.32.02-4.98l.03-2.53c0-.4 0-.4.01-2.43 0-.74.01-1.48.01-2.24C72 51 72 51 71 48c1.62-1.71 3.29-3.37 5-5h2v-2h-5v-3c.45-.43.91-.87 1.38-1.31 2.2-2.29 2.75-4.68 3.62-7.69h-2l1-2 2 1c-2-2-2-2-5-3z"/><path fill="#f07c02" d="M109 58c.17.33.17.33 1 2l4-1c-1.78 4.04-4.4 7.46-7 11l7 1c-2 2-2 2-5.75 2.13-2.7.27-3.89.52-5.86 2.43q-1.5 2.07-2.91 4.2c-1.46 2.21-3.03 4.13-4.79 6.12-.58.65-1.17 1.3-1.76 1.98-2.95 3.27-5.89 6.54-8.85 9.8-1.73 1.95-3.39 3.93-5.02 5.97-.68.78-1.36 1.56-2.06 2.37h-2l1 3c-.49.17-.49.17-3 1v49h-5c.07-1 .14-2 .22-3.03.28-4.21.46-8.43.63-12.64.11-2.4.24-4.79.39-7.18 1.64-26.35 1.64-26.35-2.74-32.73-2.77-3.08-5.96-5.27-9.5-7.42-3.96-2.97-6.4-5.76-9-10 3.62.56 4.98 1.75 7.25 4.56C58.93 94.97 62.9 98.98 67 103l3 3V82l3-1v2l2 2-1 2c-.28 4.83.24 8.5 2 13l3-7h2c.06-.35.06-.35.38-2.12 1.02-4.72 2.19-8.47 5.12-12.32 2.58-3.41 3.57-6.41 4.5-10.56h2c.03-.31.03-.31.19-1.87C94 64 94 64 96.38 62.69 99 62 99 62 102 63c-1.37 1.5-1.37 1.5-3 3h-2l2 2-2 1v9c6.07-5.72 10.31-10.38 11-19z"/><path fill="#ea4501" d="M68 7h2c.65 1.6 1.29 3.21 1.94 4.81.36.9.72 1.79 1.09 2.71.71 1.81 1.36 3.64 1.97 5.48l-1 1 2 4h3v3l-1 1c-.1.91-.21 1.82-.31 2.75-.79 3.72-2.16 5.48-4.69 8.25l5 1v2c-2.62 2.25-2.62 2.25-6 4-3.38-.75-3.38-.75-6-2v-2c-.64-.25-1.28-.49-1.94-.75C62 41 62 41 61.25 38.88c-.08-.62-.16-1.24-.25-1.88h-3v6h2c3 6.63 3 6.63 3 10-2.74-.35-3.75-.68-5.48-2.89l-1.27-2.36c-.21-.38-.21-.38-1.3-2.33-1.04-2.65-1.13-4.6-.95-7.42l-2 1c.19-.62.37-1.24.56-1.87C53 35 53 35 52 33h2l1-3h2c.17-.64.34-1.28.52-1.93.12-.42.12-.42.73-2.51.23-.82.46-1.64.7-2.49.35-.69.69-1.37 1.05-2.07 1.98-.6 1.98-.6 4-1 2-3 2.49-4.71 3.13-8.19.16-.9.33-1.8.5-2.73.12-.69.25-1.37.37-2.08"/><path fill="#f09703" d="M95 101v3c3.33.33 6.67.67 10 1v1c-3.39.75-6.62 1.17-10.08 1.32l-2.82.12-2.91.12c-.98.05-1.96.09-2.97.13-2.41.11-4.81.21-7.22.31 3.42 3.73 6.04 4.86 11 6l-1 4 2-1c2.33-.04 4.67-.04 7 0l1 3 5-2v-2l4-1-8-6c2.69 0 4.45.29 7 1 .83.23 1.66.45 2.51.68.86.25 1.73.5 2.62.76.86.24 1.73.49 2.63.74C117 113 117 113 119 115l-1 3h2v2c-5.33.33-10.67.67-16 1l7 1v1h-8c.01.63.02 1.25.04 1.9 0 .82.01 1.63.02 2.48.01.81.03 1.62.04 2.46C103 132 103 132 102 134c-.49-.16-.49-.16-3-1v-2c-.48-.03-.48-.03-2.94-.19-6.13-.89-11.5-3.76-15.25-8.68L79 119c-1.57-1.87-3.19-3.68-4.83-5.48C73 112 73 112 73 110l2-2 1-2c.83-.17.83-.17 5-1q3.015-1.47 6-3c2.96-.96 4.76-1 8-1m6 20v8h1v-8z"/><path fill="#fcae03" d="M91 36h1v5h2c-.33 7-.67 14-1 21l3 1c-1.37 2.5-1.37 2.5-3 5h-2l-.25 2.38C90 73 90 73 88 74.13c-.66.28-1.32.57-2 .87l-1 3c-3-3.62-3-3.62-3-7-.82.16-.82.16-5 1v-2l-5-1c.6-3.35 1.7-5.04 3.94-7.56 5.54-6.84 9.2-14.9 13.14-22.73C90 37 90 37 91 36"/><path fill="#fba008" d="M24 108c5.46-.02 10.93-.04 16.39-.05l5.57-.03c2.67-.01 5.35-.01 8.02-.02.83 0 1.66-.01 2.51-.01 3.97 0 7.63.12 11.51 1.11-.32.24-.32.24-1.94 1.44C64 112 64 112 63 113l2 1-4 8h-3v3h-2c-.37-5.54-.37-5.54 1.5-7.87.5-.38.99-.75 1.5-1.13l-2-1v2l-2 1c-1.13 2.06-1.13 2.06-2 4h-3v2l-6 2v-3h-4c.38-1.94.38-1.94 1-4l2-1c-.99-.16-.99-.16-6-1l4-5c-4.75.8-9.04 1.52-13.37 3.69-2.63 1.31-2.63 1.31-5 1-.54-.23-1.08-.46-1.63-.69 1.29-2.88 2.66-4.87 5-7z"/><path fill="#f89002" d="M112 89v2l2-1c2.88-.31 2.88-.31 6 0 1.36 1.31 2.69 2.65 4 4 2.58 1.39 5.2 2.63 7.86 3.85C134 99 134 99 135 101c2.06.63 2.06.63 4 1l-1 5c-.68.17-1.35.34-2.05.52-5.11 1.38-8.4 2.38-11.95 6.48-2.25.75-2.25.75-4 1l-1-3c-2.56-1.19-2.56-1.19-5-2 1.25-1.5 1.25-1.5 3-3h4v-2h-15v-1c1.09-.08 2.19-.16 3.31-.25 3.69-.75 3.69-.75 5.63-2.81L116 99c-3.63-.2-5.87.14-9 2-.1-6.15-.1-6.15 0-8l1-1c-.41.05-.41.05-2.48.29-.54.05-.54.05-3.27.34-1.07.11-2.13.23-3.23.35-3.06.02-4.48-.37-7.02-1.98 2.96-.33 5.92-.67 8.88-1 .84-.1 1.68-.19 2.55-.29.4-.04.4-.04 2.44-.27.74-.09 1.48-.17 2.25-.26C110 89 110 89 112 89m7 2 1 3Z"/><path fill="#f86a03" d="M14 54c2.18-.33 2.18-.33 5 0 2.61 2.27 2.61 2.27 5.19 5.25.86.97 1.72 1.95 2.6 2.95C29 65 29 65 31 69h-9l1 3-2 3c.44 2.06.44 2.06 1 4l-1 2h-2l-1 4h-2l1 4h-4c-.25-.58-.49-1.15-.75-1.75-1.77-3.19-4.25-5.39-7-7.75C4 78 4 78 4 74c1.32-.16 1.32-.16 8-1 .18-4.07-.15-6.43-2-10l1-3 3 1z"/><path fill="#d45407" d="M71 81h2v2l2 2-1 2c-.14 3.7.01 7.09.56 10.75C75 101 75 101 74 104l1.61-1.43c.71-.62 1.41-1.24 2.14-1.88.7-.62 1.39-1.23 2.11-1.87 1.99-1.69 4.03-3.27 6.14-4.82-1.44 3.19-3.2 5.62-5.5 8.25l-1.84 2.14C77 106 77 106 75 106l1 3-3 1v49h-5c.07-1 .14-2 .22-3.03.28-4.21.46-8.43.63-12.64.11-2.4.24-4.79.39-7.18 1.64-26.35 1.64-26.35-2.74-32.73-2.77-3.08-5.96-5.27-9.5-7.42-3.96-2.97-6.4-5.76-9-10 3.62.56 4.98 1.75 7.25 4.56C58.93 94.97 62.9 98.98 67 103l3 3c0-.36 0-.36-.02-2.19-.02-3.25-.03-6.5-.04-9.75l-.03-3.44c0-.54 0-.54-.01-3.27 0-.5 0-.5-.01-3.03C70 82 70 82 71 81"/><path fill="#fb9805" d="M56 67c3.4 3.22 6.11 6.93 8.96 10.63C67 80 67 80 69.1 81.3 71 83 71 83 71.45 85.54l-.06 3c-.01.54-.01.54-.04 3.25-.03 1.12-.07 2.24-.1 3.4-.02 1.13-.04 2.26-.05 3.43-.05 2.79-.12 5.59-.2 8.38-3.29-3.01-4.62-6.47-6.19-10.56-.13-.35-.13-.35-.82-2.08C62 89.29 62 89.29 62 87h-2l-2-9h-3l-3-9 3 1z"/><path fill="#f88b03" d="M70 110c-.51 4.46-2.11 6.75-5 10.13-3.9 4.58-3.9 4.58-5 7.87l-5 1-1 3c-1.93 1.35-1.93 1.35-4.31 2.63-.78.42-1.56.85-2.37 1.28C45 137 45 137 41 138v-13l-4-1c1.16-.16 1.16-.16 7-1l1 2 5-1v-2l4-2v-3h3v-2l3 1c-.47.37-.95.74-1.44 1.13-2.08 2.5-2.21 4.69-2.56 7.87h2l-1-3c.6-.21 1.2-.41 1.81-.62 3-1.89 3.8-4.19 5.19-7.38l-3-1c3.07-2.73 4.9-3.34 9-3m-28 14v8h1v-8z"/><path fill="#fb8102" d="M22 69c8.54-1.06 8.54-1.06 12 1.45 4 4.58 4 4.58 4 8.55h-3v-2h-3v-2l-6 1 1 4h-4l4 1v2h-6l2 2 2-1 1 3-1 1 3 1c1.33 2 2.67 4 4 6-3.75 1.25-7.06 1-11 1-2.75-2.12-2.75-2.12-5-5-.31-3.31-.31-3.31 0-6l2-1 1-3h2c-.21-1.09-.41-2.19-.62-3.31C20 74 20 74 22 71z"/><path fill="#fb9102" d="m118 54 4 1-1 2 1 3v2l4-2-2 5 2 1v2c-.82-.16-.82-.16-5-1l1 3c-.93.25-1.86.5-2.81.75C116 72 116 72 114.69 74.19c-.56.6-1.12 1.19-1.69 1.81-3.07.05-5.99-.42-9-1v-2c1.32-.16 1.32-.16 8-1l-6-1c3.8-5.83 7.76-11.48 12-17"/><path fill="#d54401" d="m42 52 1 2h7v2h2l2-2 2 2-1 3 3 1-5 1v2c-.69.06-1.37.12-2.08.18-.9.09-1.8.17-2.73.26l-2.71.24C43 64 43 64 40 65v2h-3l-1.5-5.81c-.28-1.08-.56-2.16-.84-3.27C34 55 34 55 34 52c3.29-.8 4.71-1.1 8 0"/><path fill="#e66902" d="M49 74h5l1 4h3l2 9h2q1.545 3.675 3.06 7.38c.3.69.59 1.39.9 2.11.74 1.82 1.39 3.66 2.04 5.51l-1 2c-2.5-2.33-4.97-4.69-7.44-7.06-.35-.33-.35-.33-2.14-1.99-4.3-4.18-6.24-6.71-6.42-12.95-.64-2.01-1.31-4.01-2-6z"/><path fill="#e97001" d="m89 75 3 1c.22 3.86-.4 6.49-2 10h3c-2.39 5.87-7.62 9.61-12.35 13.57C79 101 79 101 77.41 102.68 76 104 76 104 74 104c1-3 1-3 2.5-4.94 1.51-2.08 2.05-3.55 2.5-6.06h2c.12-.7.25-1.4.38-2.12C82.78 84.43 85.05 80.2 89 75"/><path fill="#a61a12" d="M71 111h2v48h-5c.26-6.68.53-13.35.8-20.03l.27-6.81.39-9.78.12-3.1.12-2.85c.04-.83.07-1.67.1-2.53.2-1.9.2-1.9 1.2-2.9"/><path fill="#fb9602" d="M63 59c3.41 1.46 5.77 3 8 6 .73 5.41.46 10.57 0 16-4.51-2.02-7.44-4.77-10-9-.74-3.01-.99-5.9-1-9h3l-1-3z"/><path fill="#fbaa06" d="m117 80-1 3c-.33.17-.33.17-2 1 5.63 1.13 5.63 1.13 9 0-.56 2.38-.56 2.38-2 5-3.08 1.15-5.7 2-9 2v-2c-.34.01-.34.01-2.08.07l-2.73.06c-.9.02-1.79.04-2.71.07C102 89 102 89 99 87c-2.69.38-2.69.38-5 1v-3c1.28-.28 2.55-.55 3.87-.84 1.67-.37 3.34-.73 5.01-1.1.84-.18 1.68-.36 2.55-.55.8-.18 1.61-.35 2.44-.54.74-.16 1.48-.32 2.25-.49C115.91 80 115.91 80 117 80"/><path fill="#f25701" d="M69 9c2.83 1.42 3.02 3.14 4.13 6.06.35.92.7 1.84 1.07 2.79.26.71.53 1.42.8 2.15l-1 1 2 4h3v3l-1 1-.31 2.75C76.9 35.47 75.53 37.23 73 40l5 1v2l-6 3c-.17-1.42-.34-2.83-.5-4.25-.09-.79-.19-1.58-.28-2.39-.32-3.43-.31-6.08.78-9.36h3l-1-2-3 1v-2h2v-2h-2l-1-9-2 2z"/><path fill="#fa9a02" d="M109.63 45c3.37 1 3.37 1 5.37 4l-4 1c.1.85.21 1.69.31 2.56-.41 4.5-2.32 7.13-5.31 10.44h-1v-7l-6 1v2h-2c.58-3.91 2.47-6.04 5-9 .6-.95 1.2-1.9 1.81-2.87C106 45 106 45 109.63 45M106 46l1 2Z"/><path fill="#fb8102" d="M73 20c.47.17.47.17 2.88 1C79 22 79 22 81 22c.51 1.44 1 2.87 1.5 4.31.28.8.56 1.6.84 2.43C84 31 84 31 84 34h-2l-3 7h-6v-3c.45-.43.91-.87 1.38-1.31 2.2-2.29 2.75-4.68 3.62-7.69h-2l1-2 2 1c-2-2-2-2-5-3z"/><path fill="#fb9e04" d="M117 104h16c-.33.17-.33.17-2 1-.62 2.56-.62 2.56-1 5h-3l-1 3c-3.06 1.19-3.06 1.19-6 2l-1-3c-2.56-1.19-2.56-1.19-5-2 1.25-1.5 1.25-1.5 3-3h4v-2z"/><path fill="#fca104" d="M46 112h2c-.87 3.88-.87 3.88-2 5h8v4l-4 1v2l-6 2v-3h-4c.38-1.94.38-1.94 1-4l2-1c-.99-.16-.99-.16-6-1l2-3c3.63-.19 3.63-.19 7 0z"/><path fill="#f76e02" d="m11 74-1 3c.99.17.99.17 6 1v2l3 1-1 4h-2l1 4h-4c-.25-.58-.49-1.15-.75-1.75-1.77-3.19-4.25-5.39-7-7.75C4 78 4 78 4 74c4.75-1.12 4.75-1.12 7 0"/><path fill="#e24b01" d="M29 47c0 3 0 3-1 5l3 1c.75 2.1 1 3.77 1 6l3 2-3 4c1.2 2.49 2.45 4.68 4 7-3.67-1.5-5.69-3.64-8.25-6.62-.71-.82-1.41-1.64-2.14-2.48-.53-.63-1.06-1.25-1.61-1.9h3c0-2 0-2-1-5l-2-1c0-4 0-4 2-6z"/><path fill="#f68203" d="M6 108q4.44-.045 8.88-.06l2.55-.03c.8 0 1.61 0 2.44-.01.37 0 .37 0 2.25-.01C24 108 24 108 26 109c-1.16 3.48-1.86 4.22-5 6-3.34.42-5.19.56-8-1.37-.66-.54-1.32-1.08-2-1.63-1.98-.72-3.98-1.4-6-2z"/><path fill="#e77005" d="M95 101v3c3.33.33 6.67.67 10 1v1c-3.58.78-7.08 1.24-10.74 1.54-1.06.08-2.13.17-3.23.26s-2.21.17-3.34.26c-1.12.09-2.25.18-3.4.28L76 109v-3c.7-.1 1.4-.21 2.13-.31 3.27-.78 5.88-2.16 8.87-3.69 2.96-.96 4.76-1 8-1"/><path fill="#fb9c03" d="M93 117c2.5-.37 2.5-.37 5 0 2 3 2 3 1.63 6.19-.21.93-.42 1.85-.63 2.81l-3-1v2l-6 2c-.45-.76-.91-1.53-1.37-2.31-1.17-1.93-2.38-3.82-3.63-5.69.95-.1 1.9-.21 2.88-.31C91 120 91 120 93 117"/><path fill="#f66701" d="M127 62h1v6h2l1 2h4c.38 2.25.38 2.25 0 5-2.87 2.19-2.87 2.19-6 4l-2 2-2-1 1-3-3-1-1-3h3v-3h2z"/><path fill="#e56c02" d="M70 47c2 1 2 1 2.62 2.78.39 2.3.49 4.43.48 6.77 0 .42 0 .42-.01 2.56l-.03 2.64c0 .89-.01 1.78-.01 2.69-.01 2.19-.03 4.37-.05 6.56l2 1v3h-3l2 4 7-6c-2.27 4.54-4.1 5.95-8 9l-2-1V65l-3-1 2-1z"/><path fill="#e87002" d="M79 80h5l-1 2h-2c-.12.61-.24 1.23-.37 1.86-.08.41-.08.41-.5 2.45-.17.8-.33 1.6-.5 2.43C79 91 79 91 77 94c-.38 1.66-.73 3.32-1 5-2.94-4.41-3.19-6.67-3-12l1-2-2-2c1.16-.16 1.16-.16 7-1z"/><path fill="#ed6402" d="m32 114 1 2h2v2l-6 3 3 1 1-2c2.09-.67 3.8-1 6-1l1 4c-5.77 1.4-11.18.67-17 0-.1-.62-.21-1.24-.31-1.87C22 119 22 119 19 117v-2c3.35.95 6.69 1.9 10 3zm-8 4 1 3Z"/><path fill="#e96e02" d="m109 58 1 2 4-1c-1.78 4.04-4.4 7.46-7 11l7 1c-2 2-2 2-5.75 2.13-2.82.27-3.93.55-5.97 2.57-1.49 2.06-2.88 4.17-4.28 6.3-1.3 1.37-2.61 2.72-4 4l-1-2h2c.24-.72.47-1.43.72-2.17 1.48-3.28 3.38-5.41 5.78-8.08 4.19-4.96 5.68-8.37 6.5-14.75z"/><path fill="#f77a02" d="M51 90v3l-12 3 2 2c.13 2.63.13 2.63 0 5l-4-2-1 3-1-4h2v-2h-2v-2l-3-1v-3c1.16.21 2.31.41 3.5.63 5.64.72 10.15-.85 15.5-2.63"/><path fill="#f67b02" d="M121 67c2.44.38 2.44.38 5 1l1 2h-2v3c-.33.17-.33.17-2 1v2l4 1c-.33.16-.33.16-2 1v3l-2-1 1-3c-.65.28-1.3.55-1.98.84-4.66 1.93-8.95 3.63-14.02 4.16 2.26-2.26 4-2.98 7-4h3c.12-.93.25-1.86.38-2.81C119 72 119 72 121 69z"/><path fill="#f37400" d="m44 123 1 7c3.2.09 5.93-.09 9-1v3c-1.41.82-2.83 1.63-4.25 2.44-.39.22-.39.22-2.39 1.37C45 137 45 137 41 138v-13l-4-1c2.49-.69 4.38-1 7-1m-2 1v8h1v-8z"/><path fill="#f27e02" d="m131 100 8 2-1 5-7 2v-4h-25v-1c1.11-.14 2.23-.29 3.38-.44C113 103 113 103 115 102c2.55-.07 5.07-.09 7.63-.06a912 912 0 0 1 7.37.06z"/><path fill="#f35e02" d="m16 59 4 1v2l3 1c-.33.17-.33.17-2 1l-1 3h-3l1 3-1 2h-4c-.53-1.43-1.05-2.87-1.56-4.31l-.88-2.43C10 63 10 63 11 60l2 3c.62-.19 1.24-.37 1.88-.56C17 62 17 62 19 63v-2l-3-1z"/><path fill="#c34104" d="M48 86c3.62.56 4.98 1.75 7.25 4.56 5 5.97 10.36 11.93 16.75 16.44h2v-2l2 1c-.19 1.88-.19 1.88-1 4-2.56 1.25-2.56 1.25-5 2-.22-.71-.44-1.42-.67-2.15-1.62-3.48-3.91-5.8-6.64-8.41-.48-.47-.95-.94-1.44-1.42a87 87 0 0 0-6.96-6.16C51.5 91.6 49.87 89.04 48 86"/><path fill="#f45402" d="M32 45c4.8 2.46 4.8 2.46 5.81 5.19.06.6.13 1.19.19 1.81h-4l2 7h-5v-3l-1-3-2-1v-2l2-1c1.13-2.06 1.13-2.06 2-4"/><path fill="#eb6001" d="m13 101 2 1-1 4 2.88-.06C20 106 20 106 22 107l-1-3h3l-1 3 6-1 1 2c-9 .33-18 .67-27 1v-2c.64-.18 1.28-.36 1.93-.55.83-.25 1.66-.5 2.51-.76.41-.12.41-.12 2.49-.74.69-.31 1.37-.63 2.07-.95z"/><path fill="#f68101" d="m83 113 7 1-1 4 4-1c-.75 1.94-.75 1.94-2 4-2 .81-2 .81-4 1l-2-1v-2l2-1zm-2 7c3.4 1.01 4.76 1.65 6.81 4.63.39.78.79 1.56 1.19 2.37-5.65-1.47-5.65-1.47-7.37-4.06C81 121 81 121 81 120"/><path fill="#f99004" d="M91 93c1.68.29 3.34.62 5 1v2l-8 1-1 3c-3 2-3 2-6 2v4l-5 1c2.44-4.74 5.85-8.68 10-12 2.16-.64 2.16-.64 4-1z"/><path fill="#fb9f03" d="M57 112c3.72-.2 4.77-.15 8 2l-4 8h-3v3h-2c-.37-5.54-.37-5.54 1.5-7.87.5-.38.99-.75 1.5-1.13l-2-1v2l-3-1 1-2h2z"/><path fill="#e56701" d="M91 87c0 3 0 3-2.06 5.31-2.72 2.49-5.47 4.9-8.29 7.26C79 101 79 101 77.41 102.68 76 104 76 104 74 104c1.65-4.95 4.42-8.84 8.63-11.94C85 91 85 91 88 91v-2z"/><path fill="#fa8a01" d="M125 96c3.17.44 6.06 1.77 9 3l-3 1-1 3h-11c1-3 1-3 4-5z"/><path fill="#ef6301" d="m30 96-1 3h4l1 6c-.87-.66-1.73-1.32-2.62-2-3.59-2.13-5.31-2.39-9.38-2-1-3-1-3 0-6 3.29-1.47 5.01-.82 8 1m0-1 2 1Z"/><path fill="#f65b08" d="m19 46-3 1 1 3v2l1 2h-4v7l-2-1c.06-1.18.12-2.35.19-3.56.02-4.48-1.2-7.46-3.19-11.44 3.94-1.31 6.12-.24 10 1"/><path fill="#f97902" d="m129 41-3 11-2-1c-3 0-3 0-5 1l3-6c-.99-.16-.99-.16-6-1 3.93-2.2 8.45-4 13-4"/><path fill="#f57402" d="M100 122h1c.57 3.73 1 7.21 1 11h-3v-2l-7-1v-3h4l-1-3 3 1z"/><path fill="#f99802" d="M100 108c.38.13.38.13 2.31.81 4.06 1.31 8.16 2.37 12.3 3.41C117 113 117 113 119 115c-3.23 1.61-5.41 1.4-9 1-8.13-4.25-8.13-4.25-10-8"/><path fill="#f98e01" d="M88 30h6c-.33 3.67-.67 7.33-1 11l-2-4-4 6-2-2h2l-1-4 4-1v-2h-3z"/><path fill="#fa9203" d="m55 118-2 4h-3v2l-6 2v-3l-4-1h6v-3c3.43-1.62 5.38-2.34 9-1"/><path fill="#fca607" d="M30 85c5.67.33 11.33.67 17 1v2c-2.52 1.5-4.17 2.46-7 3-3.28-.84-6.16-2.16-9-4z"/><path fill="#e36401" d="m59 90 1 3 5 1 3 10c-4.15-3.43-7.79-6.63-11-11h2z"/><path fill="#f96803" d="M73 20c.47.17.47.17 2.88 1C79 22 79 22 81 22l1 7h-2v4l-3-1 1-3h-2l1-2 2 1c-2-2-2-2-5-3z"/><path fill="#ea5301" d="m49 54 1 2h2l2-2 2 2-1 3 3 1-5 1v2c-.82-.33-.82-.33-5-2z"/><path fill="#fb8b02" d="M69 47h1v16h-2q-.765-1.875-1.5-3.75c-.28-.7-.56-1.39-.84-2.11C65 55 65 55 65 51l3-1z"/><path fill="#fa8a02" d="M126 104h7c-.33.17-.33.17-2 1-.62 2.56-.62 2.56-1 5h-3l-1 3c-3.06 1.19-3.06 1.19-6 2 .25-1.81.25-1.81 1-4 1.33-1 2.67-2 4-3 .75-2.19.75-2.19 1-4"/><path fill="#fba10f" d="M88 97h9l-1 3c-1.94.53-3.89 1.04-5.87 1.46-2.13.54-2.13.54-5.44 2.23C82 105 82 105 79 104h2v-2c.97-.45 1.94-.91 2.94-1.37C87 99 87 99 88 97"/><path fill="#940402" d="M71 111h2v28h-1c-.36-4.48-.71-8.96-1.06-13.44-.11-1.28-.21-2.56-.32-3.87-.09-1.22-.18-2.43-.28-3.69-.09-1.12-.18-2.25-.27-3.41-.02-.85-.05-1.71-.07-2.59z"/><path fill="#fba80d" d="M79 108q2.655-.075 5.31-.12c.99-.03 1.97-.05 2.99-.08 2.7.2 2.7.2 5.7 2.2-.33.5-.33.5-2 3h-2v-2c-.36.1-.36.1-2.19.63-3.26.43-4.89-.21-7.81-1.63z"/><path fill="#f97a05" d="m57 95 2 3-7 2v-2h-4v-3c3.15-1.57 5.64-.72 9 0"/><path fill="#fba802" d="M105 46c1.03 2.79 1.05 3.87.06 6.75-.35.74-.7 1.49-1.06 2.25h-2v2h-3v2h-2c.58-3.9 2.49-6.04 5-9 1.01-1.33 2.01-2.66 3-4"/><path fill="#f97b02" d="M23 89c2.38-.19 2.38-.19 5 0 1.33 2 2.67 4 4 6-3.77 1.26-6.23 1.26-10 0z"/><path fill="#f87b01" d="M24 100c4.75.43 6.92 1.33 10 5l-1 3c-1.32-.57-2.63-1.15-3.94-1.75l-2.21-.98C25 104 25 104 24.25 101.86c-.09-.61-.17-1.23-.25-1.86"/><path fill="#fba104" d="M102 76c.83.33.83.33 5 2l-1 3h-3v2h-6c1.52-2.63 2.84-4.84 5-7"/><path fill="#e45302" d="m11 74-1 3c.99.17.99.17 6 1v2c-1.44.05-2.87.09-4.31.13-.8.02-1.6.04-2.43.07C7 80 7 80 4 78v-4c4.75-1.12 4.75-1.12 7 0"/><path fill="#fca607" d="M81 114c2.89.4 3.82.79 5.75 3.06.21.32.21.32 1.25 1.94h-3v2l-6-2c1-3 1-3 2-5"/><path fill="#f78611" d="M59 98c1.11.91 2.21 1.83 3.31 2.75.62.51 1.23 1.02 1.87 1.55C66 104 66 104 69 108l-10-3 1-2c-.94-2.12-.94-2.12-2-4z"/><path fill="#f09001" d="M94 47h1c.06.57.06.57.38 3.44.1.59.1.59.62 3.56l2 1v7l-3 1-2-1c.33-5 .67-10 1-15m0 9 1 2 1-2z"/><path fill="#f77b02" d="M76 43c2.14 2.14 2.43 3.13 3 6l-6 3-2-4z"/><path fill="#fd9f03" d="m84 29 4 3-1 2h3v2c-5.75 1.13-5.75 1.13-8 0l-1 3v-6l4-1z"/><path fill="#fa8004" d="m56 67 3 3-2 2c-.12 3.13-.12 3.13 0 6h-2l-3-9 3 1z"/><path fill="#fdac05" d="M65 63c3.88.88 3.88.88 5 2 .14 2.67.04 5.32 0 8h-4l-1-3 3-2-3-1z"/><path fill="#faa002" d="M91 60h2v2l3 1c-1.37 2.5-1.37 2.5-3 5h-2l1-5-3 2c-2.69-.37-2.69-.37-5-1l1-2c.66.17.66.17 4 1l1-2z"/><path fill="#f76205" d="m47 31 7 1c0 3.52-.82 4.37-3 7v-2l-3 1z"/><path fill="#f27201" d="m117 115 1 3h2v2c-5 .33-10 .67-15 1v-1l9-2-2-2z"/><path fill="#f58206" d="M71 83v24c-2-2-2-2-2.14-3.88.06-.74.11-1.49.16-2.25.06-.81.11-1.61.16-2.44.06-.85.13-1.69.2-2.55.05-.85.11-1.7.17-2.58q.21-3.15.45-6.3l-4-2c3.88-2 3.88-2 5-2"/><path fill="#f48105" d="M67.75 109.75c.74.08 1.49.17 2.25.25-.5 3.69-1.1 5.6-4 8l-1-5-4 1c3.32-3.94 3.32-3.94 6.75-4.25"/><path fill="#af3d17" d="M65 103c3.33.57 4.7 1.59 7 4h2v-2l2 1c-.19 1.88-.19 1.88-1 4-2.56 1.25-2.56 1.25-5 2-.27-.74-.54-1.48-.81-2.25-1.13-2.62-2.4-4.55-4.19-6.75"/><path fill="#f54701" d="M39 51c3 1 3 1 4 3h5l-1 4c-2.76-.52-5.33-1.11-8-2-.75-2-.75-2-1-4z"/><path fill="#e64a01" d="M58 44c4.43 5.14 4.43 5.14 5 9-1.81-.19-1.81-.19-4-1-3-4.18-3-4.18-3-7z"/><path fill="#ee7901" d="M79 80h5l-1 2h-2l-2 9h-1l1-7h-7v-1c1.16-.16 1.16-.16 7-1z"/><path fill="#f68f03" d="M70 65h1v16l-4-2-1-3 3-1c.33-3.33.67-6.67 1-10"/><path fill="#f69202" d="M73 70h3l1 3 2 2c-.99.83-.99.83-6 5l-1-5h3z"/><path fill="#c43a01" d="M48 57c.12.62.25 1.24.38 1.88C49 61 49 61 51 63c-2.81.63-2.81.63-6 1l-3-2c3.75-3.87 3.75-3.87 6-5"/><path fill="#f68b02" d="M85 44c1 3 1 3-.21 5.48-.57.89-1.14 1.79-1.73 2.71-.56.9-1.13 1.8-1.71 2.73-.45.69-.89 1.37-1.35 2.08-1.23-2.46-1.07-4.28-1-7h3v-5z"/><path fill="#f04704" d="M69 9c2.61 1.31 2.68 2.36 3.63 5.06.26.74.52 1.47.78 2.23.2.56.39 1.13.59 1.71h-2l-1 2-1-4-2 2z"/><path fill="#f75504" d="M135 102h4l-1 5-7 2v-4l4-1z"/><path fill="#ec7408" d="M79 108c1.38 1.63 2.72 3.29 4 5l-7-2-1 4-2-5c3.75-2 3.75-2 6-2"/><path fill="#fca909" d="M63 78c3.37 1.39 4.99 2.98 7 6l-7-1c-.56-1.94-.56-1.94-1-4z"/><path fill="#f56102" d="M54 44v2l3 1-1 4-6-4-1 2v-4c3-1 3-1 5-1"/><path fill="#a30a00" d="M74 115c2 2 2 2 2.14 4.25-.06.91-.11 1.82-.16 2.76-.05.98-.11 1.97-.16 2.99-.06 1.03-.13 2.06-.19 3.13-.06 1.04-.12 2.08-.18 3.15-.14 2.57-.29 5.15-.45 7.72h-1z"/><path fill="#fc8f10" d="M57 98c2.78 1.39 2.98 3.16 4 6l-8-1c.31-1.94.31-1.94 1-4z"/><path fill="#f17701" d="M116 91h3l2 5c-1 1-1 1-4.06 1.06L114 97z"/><path fill="#f07d02" d="M88 30h6v5l-7-1z"/><path fill="#a00b00" d="M68 116h1v23h-1c-.2-3.46-.38-6.92-.56-10.37-.06-.99-.11-1.97-.17-2.99-.03-.47-.03-.47-.15-2.85-.05-.87-.09-1.74-.14-2.64C67 118 67 118 68 116"/><path fill="#ec7201" d="M87.69 102.81 91 103l-1 3h-9c3-3 3-3 6.69-3.19"/><path fill="#ee6004" d="M127 41h2l-3 11-2-1c-1-3-1-3-.22-4.82 1.07-1.73 2.15-3.45 3.22-5.18"/><path fill="#ea4d04" d="M19 46c-3 2-3 2-7 2l-1 2-2-5c3.94-1.31 6.12-.24 10 1"/><path fill="#f98a02" d="m49 88 2 1v2c-3.97 1.8-7.65 2.67-12 3l-2-2c3.33-.33 6.67-.67 10-1v-2z"/><path fill="#f34e04" d="M130 70h5c.19 2.38.19 2.38 0 5-.49.33-.49.33-3 2-2-3-2-3-2-7"/><path fill="#f16a01" d="M35 66h2l.88 3.44c.37 1.17.74 2.35 1.12 3.56l2 1c-3 0-3 0-6-2-1-3-1-3 0-6"/><path fill="#fa7805" d="M49 37h2c.6 2.76 1 5.16 1 8h-4z"/><path fill="#dd6104" d="M91 87c0 3 0 3-2.5 5.69-.82.76-1.65 1.52-2.5 2.31l-2-1 1-3h3v-2z"/><path fill="#da4402" d="m49 54 1 2 3 1c-.33.5-.33.5-2 3 .33.5.33.5 2 3-.82-.33-.82-.33-5-2z"/><path fill="#e57901" d="m113 45 1 2h3l1 3c-1.81 1.56-1.81 1.56-4 3l-3-1v-2l3-1z"/><path fill="#eb6601" d="M54 104c6.63.75 6.63.75 10 3h-9z"/><path fill="#ec4c00" d="M7 81c1.49.33 1.49.33 9 2-.33.17-.33.17-2 1l1 5h-2c-.12-.29-.12-.29-.75-1.75C10.83 84.7 9.12 82.98 7 81"/><path fill="#f26602" d="m53 61 4 1-1 2 3 1c-3.62 1.21-4.64.54-8-1l2-1z"/><path fill="#fb8006" d="M50 47c3.16 1.37 3.99 1.99 6 5h-6z"/><path fill="#e15807" d="M42 132c.66.17.66.17 4 1l-1 4-4 1z"/><path fill="#f78b01" d="m94 76 3 3-2 4h-2q-.06-3 0-6z"/><path fill="#fa7804" d="M129 69h1l1 7c-.82-.33-.82-.33-5-2l1-3h2z"/><path fill="#fc9f11" d="M68 109c-2.36 2.1-3.55 2.97-6.75 3.19-.37-.03-.37-.03-2.25-.19v-2c2.96-1.48 5.74-1.06 9-1"/><path fill="#f7770b" d="m59 98 5 5h-4l-2-4zm0 6 2 1Z"/><path fill="#f26902" d="M131 100c2.25.25 2.25.25 4 1v3h-8c1.75-2.06 1.75-2.06 4-4"/><path fill="#f78607" d="m81 100 2 2h-2v4l-5 1c1.52-2.63 2.84-4.84 5-7"/><path fill="#fc9002" d="m114 45 8 1-1 3h-4v-2l-3-1z"/><path fill="#5a0b09" d="M71 111h2v7c-.33.17-.33.17-2 1-.38-2.33-.71-4.66-1-7z"/><path fill="#e85202" d="m11 105-1 3-7 1v-2c5.75-2 5.75-2 8-2"/><path fill="#fb8102" d="m19 101 1 4-7 1c.75-1.94.75-1.94 2-4 2.13-.75 2.13-.75 4-1"/><path fill="#f17c02" d="m59 84 1 3h2l2 6c-3-1-3-1-4.19-2.81C59 88 59 88 59 84"/><path fill="#fec904" d="M105 46c.93 2.61 1.15 3.64.06 6.25-.17.29-.17.29-1.06 1.75l-2-1c.75-4.75.75-4.75 3-7"/><path fill="#f47502" d="m30 114 2 1c-1.31 2-1.31 2-3 4h-3c.31-1.94.31-1.94 1-4z"/><path fill="#fb9302" d="M82 111h7l1 3c-2.34-.26-4.68-.59-7-1z"/><path fill="#d83c01" d="m24 51 3 1v3h2l-1 3c-2-1.25-2-1.25-4-3z"/><path fill="#e23801" d="M71 22v4c-.99-.16-.99-.16-6-1v-2c2.08-.55 3.84-1 6-1"/><path fill="#f89301" d="m99 79 3 1 1 3h-6z"/><path fill="#fb9e05" d="m63 59 4 4h-2l-1 3-2-6z"/><path fill="#d54401" d="M22 95h2l2 5-4 1c-1-3-1-3 0-6"/><path fill="#de6202" d="m75 84 2 1c-.31 1.94-.31 1.94-1 4l-3 1c.88-4.87.88-4.87 2-6"/><path fill="#f38301" d="M72 75c.83.17.83.17 5 1l-4 4z"/><path fill="#9b3203" d="M69 156c.66.17.66.17 4 1v2h-5z"/><path fill="#ad0600" d="M67 140h1v13h-1z"/><path fill="#fc6201" d="M129 97c-.49.5-.49.5-3 3l-1-2-2-1c2.49-1.25 3.41-.78 6 0"/><path fill="#fb9a06" d="M19 89c.83.17.83.17 5 1l-1 3-4-2z"/><path fill="#fd8d03" d="m126 79 2 4-2 2v-2l-3-1z"/><path fill="#e75e02" d="M70 47c2 1 2 1 2.75 2.88C73 52 73 52 71 55c-1.35-2.71-1.07-5.01-1-8"/><path fill="#f86901" d="m60 123 1 4-4 1c.38-1.94.38-1.94 1-4z"/><path fill="#a2320b" d="m74 105 2 1-1 4-3-1v-2h2z"/><path fill="#d65701" d="m62 96 3 1-1 4-3-4z"/><path fill="#fc9e04" d="m113 61 3 1c-.33.5-.33.5-2 3h-3z"/><path fill="#f64b03" d="M60 24c.55 2.08 1 3.84 1 6l-3-1z"/><path fill="#fd7704" d="M78 24h3l1 5h-2z"/><path fill="#920000" d="M73 142h1v11h-1z"/><path fill="#e98813" d="M73 110h3v5c-1.5-1.37-1.5-1.37-3-3z"/><path fill="#f16d02" d="M71 48h5l-2 4-3-2z"/><path fill="#de3301" d="M61 25h2l1 5h-2z"/><path fill="#f88104" d="m55 125 3 1-3 3-2-1z"/><path fill="#f98b02" d="m70 83 1 3-3 1-2-2z"/><path fill="#f86c01" d="m66 39 4 1-1 3-3-2z"/><path fill="#ff8d00" d="M111 121h9v1h-9z"/><path fill="#f05900" d="M11 52h1v8l-2-2c.38-3.12.38-3.12 1-6"/><path fill="#ff3c00" d="M65 10h1v7h-1z"/><path fill="#bf0e00" d="M66 153h1v6h-1z"/><path fill="#ff5700" d="M11 67h1v6h-1z"/><path fill="#fff000" d="M94 35h1v6h-1z"/><path fill="#900000" d="M74 154h1v5h-1z"/><path fill="#ff7f00" d="M24 124h5v1h-5z"/><path fill="#ff5d00" d="M5 111h5v1H5z"/><path fill="#ff7200" d="M48 49h1v5h-1z"/><path fill="#ff9800" d="M127 47h1v5h-1z"/><path fill="#ff6500" d="M95 41h1v5h-1z"/><path fill="#ff8700" d="M95 30h1v5h-1z"/><path fill="#ff3f00" d="M63 122v3Z"/><path fill="#ff4a00" d="m46 33 1 4Zm36-11 1 4Z"/><path fill="#ff6a00" d="m57 23 1 4Z"/><path fill="#bf5400" d="m72 9 1 4Z"/><path fill="#ff9b00" d="m31 124 3 1Z"/><path fill="#8d3800" d="m6 104 3 1Z"/><path fill="#ff4600" d="m9 103 3 1Z"/><path fill="#ff3100" d="m135 100 3 1Z"/><path fill="#ff4600" d="m23 47 3 1Z"/><path fill="#d46a00" d="m97 131 2 1Z"/><path fill="red" d="m34 125 2 1Z"/><path fill="#7f0000" d="m29 125 2 1Z"/><path fill="#d45500" d="m17 116 2 1Z"/><path fill="#ff2a00" d="m4 105 2 1Z"/><path fill="#ff7f00" d="m16 99 2 1Z"/><path fill="#7f3f00" d="m4 79 2 1Z"/><path fill="red" d="m131 69 2 1Zm2-1 2 1Z"/><path fill="#ff2a00" d="m19 47 2 1Z"/><path fill="#ff3f00" d="m21 46 2 1Z"/><path fill="#d42a00" d="m10 43 2 1Z"/><path fill="#ffbf00" d="m125 40 2 1Z"/><path fill="#ff3f00" d="m92 28 2 1Z"/><path fill="#d46a00" d="m77 21 2 1Z"/><path fill="#ff3f00" d="m79 20 2 1Z"/><path fill="red" d="m68 5 2 1Z"/></svg>